<svg width="49" height="48" viewBox="0 0 49 48" fill="none" xmlns="http://www.w3.org/2000/svg">
<path d="M24.3986 44.997C38.3996 44.997 45.3971 35.595 45.3971 23.997C45.3971 12.402 38.3996 3.00003 24.3971 3.00003C10.3976 3.00003 3.40015 12.402 3.40015 23.9985C3.40015 35.595 10.3961 44.997 24.3986 44.997Z" fill="url(#paint0_radial_27_4687)"/>
<path d="M24.3986 44.997C38.3996 44.997 45.3971 35.595 45.3971 23.997C45.3971 12.402 38.3996 3.00003 24.3971 3.00003C10.3976 3.00003 3.40015 12.402 3.40015 23.9985C3.40015 35.595 10.3961 44.997 24.3986 44.997Z" fill="url(#paint1_radial_27_4687)"/>
<path d="M24.3986 44.997C38.3996 44.997 45.3971 35.595 45.3971 23.997C45.3971 12.402 38.3996 3.00003 24.3971 3.00003C10.3976 3.00003 3.40015 12.402 3.40015 23.9985C3.40015 35.595 10.3961 44.997 24.3986 44.997Z" fill="url(#paint2_radial_27_4687)"/>
<path d="M24.3986 44.997C38.3996 44.997 45.3971 35.595 45.3971 23.997C45.3971 12.402 38.3996 3.00003 24.3971 3.00003C10.3976 3.00003 3.40015 12.402 3.40015 23.9985C3.40015 35.595 10.3961 44.997 24.3986 44.997Z" fill="url(#paint3_radial_27_4687)" fill-opacity="0.6"/>
<path d="M24.3986 44.997C38.3996 44.997 45.3971 35.595 45.3971 23.997C45.3971 12.402 38.3996 3.00003 24.3971 3.00003C10.3976 3.00003 3.40015 12.402 3.40015 23.9985C3.40015 35.595 10.3961 44.997 24.3986 44.997Z" fill="url(#paint4_radial_27_4687)"/>
<path d="M24.3986 44.997C38.3996 44.997 45.3971 35.595 45.3971 23.997C45.3971 12.402 38.3996 3.00003 24.3971 3.00003C10.3976 3.00003 3.40015 12.402 3.40015 23.9985C3.40015 35.595 10.3961 44.997 24.3986 44.997Z" fill="url(#paint5_radial_27_4687)"/>
<path d="M24.3986 44.997C38.3996 44.997 45.3971 35.595 45.3971 23.997C45.3971 12.402 38.3996 3.00003 24.3971 3.00003C10.3976 3.00003 3.40015 12.402 3.40015 23.9985C3.40015 35.595 10.3961 44.997 24.3986 44.997Z" fill="url(#paint6_radial_27_4687)"/>
<path d="M24.3986 44.997C38.3996 44.997 45.3971 35.595 45.3971 23.997C45.3971 12.402 38.3996 3.00003 24.3971 3.00003C10.3976 3.00003 3.40015 12.402 3.40015 23.9985C3.40015 35.595 10.3961 44.997 24.3986 44.997Z" fill="url(#paint7_radial_27_4687)"/>
<g opacity="0.6" filter="url(#filter0_f_27_4687)">
<path fill-rule="evenodd" clip-rule="evenodd" d="M11.3393 14.6896C11.6206 14.4084 12.0021 14.2504 12.3998 14.2504C12.7976 14.2504 13.179 14.4084 13.4603 14.6896L16.1498 17.3791L18.8393 14.6896C18.9777 14.5463 19.1432 14.4321 19.3262 14.3534C19.5092 14.2748 19.7061 14.2334 19.9052 14.2317C20.1044 14.23 20.3019 14.2679 20.4863 14.3434C20.6706 14.4188 20.8381 14.5302 20.9789 14.671C21.1198 14.8118 21.2311 14.9793 21.3066 15.1637C21.382 15.348 21.4199 15.5455 21.4182 15.7447C21.4165 15.9439 21.3751 16.1407 21.2965 16.3237C21.2179 16.5067 21.1036 16.6722 20.9603 16.8106L18.2708 19.5001L20.9603 22.1896C21.2336 22.4725 21.3848 22.8514 21.3813 23.2447C21.3779 23.638 21.2202 24.0142 20.9421 24.2923C20.6639 24.5704 20.2877 24.7282 19.8944 24.7316C19.5011 24.735 19.1222 24.5838 18.8393 24.3106L16.1498 21.6211L13.4603 24.3106C13.1774 24.5838 12.7985 24.735 12.4052 24.7316C12.0119 24.7282 11.6357 24.5704 11.3576 24.2923C11.0795 24.0142 10.9217 23.638 10.9183 23.2447C10.9149 22.8514 11.0661 22.4725 11.3393 22.1896L14.0288 19.5001L11.3393 16.8106C11.0581 16.5293 10.9001 16.1478 10.9001 15.7501C10.9001 15.3523 11.0581 14.9709 11.3393 14.6896ZM27.8393 14.6896C28.1206 14.4084 28.5021 14.2504 28.8998 14.2504C29.2976 14.2504 29.679 14.4084 29.9603 14.6896L32.6498 17.3791L35.3393 14.6896C35.4777 14.5463 35.6432 14.4321 35.8262 14.3534C36.0092 14.2748 36.2061 14.2334 36.4052 14.2317C36.6044 14.23 36.8019 14.2679 36.9863 14.3434C37.1706 14.4188 37.3381 14.5302 37.4789 14.671C37.6198 14.8118 37.7311 14.9793 37.8066 15.1637C37.882 15.348 37.9199 15.5455 37.9182 15.7447C37.9165 15.9439 37.8751 16.1407 37.7965 16.3237C37.7179 16.5067 37.6036 16.6722 37.4603 16.8106L34.7708 19.5001L37.4603 22.1896C37.7336 22.4725 37.8848 22.8514 37.8813 23.2447C37.8779 23.638 37.7202 24.0142 37.4421 24.2923C37.1639 24.5704 36.7877 24.7282 36.3944 24.7316C36.0011 24.735 35.6222 24.5838 35.3393 24.3106L32.6498 21.6211L29.9603 24.3106C29.6774 24.5838 29.2985 24.735 28.9052 24.7316C28.5119 24.7282 28.1357 24.5704 27.8576 24.2923C27.5795 24.0142 27.4217 23.638 27.4183 23.2447C27.4149 22.8514 27.5661 22.4725 27.8393 22.1896L30.5288 19.5001L27.8393 16.8106C27.5581 16.5293 27.4001 16.1478 27.4001 15.7501C27.4001 15.3523 27.5581 14.9709 27.8393 14.6896Z" fill="#B56318"/>
</g>
<path d="M19.9001 15.0001L12.4001 22.5001" stroke="url(#paint8_linear_27_4687)" stroke-width="3" stroke-linecap="round"/>
<path d="M12.4001 15.0001L19.9001 22.5001" stroke="url(#paint9_linear_27_4687)" stroke-width="3" stroke-linecap="round"/>
<path d="M36.4001 15.0001L28.9001 22.5001" stroke="url(#paint10_linear_27_4687)" stroke-width="3" stroke-linecap="round"/>
<path d="M28.9001 15.0001L36.4001 22.5001" stroke="url(#paint11_linear_27_4687)" stroke-width="3" stroke-linecap="round"/>
<path d="M30.4001 34.5001C30.4001 31.1864 27.7139 28.5001 24.4001 28.5001C21.0864 28.5001 18.4001 31.1864 18.4001 34.5001C18.4001 37.8138 21.0864 40.5001 24.4001 40.5001C27.7139 40.5001 30.4001 37.8138 30.4001 34.5001Z" fill="url(#paint12_radial_27_4687)"/>
<defs>
<filter id="filter0_f_27_4687" x="9.40015" y="12.7317" width="30.0181" height="13.5" filterUnits="userSpaceOnUse" color-interpolation-filters="sRGB">
<feFlood flood-opacity="0" result="BackgroundImageFix"/>
<feBlend mode="normal" in="SourceGraphic" in2="BackgroundImageFix" result="shape"/>
<feGaussianBlur stdDeviation="0.75" result="effect1_foregroundBlur_27_4687"/>
</filter>
<radialGradient id="paint0_radial_27_4687" cx="0" cy="0" r="1" gradientUnits="userSpaceOnUse" gradientTransform="translate(38.6504 13.4994) rotate(132.839) scale(56.2549)">
<stop stop-color="#FFF478"/>
<stop offset="0.475" stop-color="#FFB02E"/>
<stop offset="1" stop-color="#F70A8D"/>
</radialGradient>
<radialGradient id="paint1_radial_27_4687" cx="0" cy="0" r="1" gradientUnits="userSpaceOnUse" gradientTransform="translate(38.6484 13.501) rotate(131.878) scale(58.423)">
<stop stop-color="#FFF478"/>
<stop offset="0.475" stop-color="#FFB02E"/>
<stop offset="1" stop-color="#F70A8D"/>
</radialGradient>
<radialGradient id="paint2_radial_27_4687" cx="0" cy="0" r="1" gradientUnits="userSpaceOnUse" gradientTransform="translate(24.3991 18.7496) rotate(101.31) scale(26.7699 34.2871)">
<stop offset="0.788" stop-color="#F59639" stop-opacity="0"/>
<stop offset="0.973" stop-color="#FF7DCE"/>
</radialGradient>
<radialGradient id="paint3_radial_27_4687" cx="0" cy="0" r="1" gradientUnits="userSpaceOnUse" gradientTransform="translate(27.4001 21) rotate(135) scale(61.5183)">
<stop offset="0.315" stop-opacity="0"/>
<stop offset="1"/>
</radialGradient>
<radialGradient id="paint4_radial_27_4687" cx="0" cy="0" r="1" gradientUnits="userSpaceOnUse" gradientTransform="translate(24.4001 25.5012) rotate(77.692) scale(42.2203)">
<stop offset="0.508" stop-color="#7D6133" stop-opacity="0"/>
<stop offset="1" stop-color="#715B32"/>
</radialGradient>
<radialGradient id="paint5_radial_27_4687" cx="0" cy="0" r="1" gradientUnits="userSpaceOnUse" gradientTransform="translate(25.1501 24.75) rotate(55.713) scale(19.9702 14.4755)">
<stop stop-color="#FFB849"/>
<stop offset="1" stop-color="#FFB847" stop-opacity="0"/>
</radialGradient>
<radialGradient id="paint6_radial_27_4687" cx="0" cy="0" r="1" gradientUnits="userSpaceOnUse" gradientTransform="translate(31.1501 27) rotate(9.86582) scale(17.5089)">
<stop stop-color="#FFA64B"/>
<stop offset="0.9" stop-color="#FFAE46" stop-opacity="0"/>
</radialGradient>
<radialGradient id="paint7_radial_27_4687" cx="0" cy="0" r="1" gradientUnits="userSpaceOnUse" gradientTransform="translate(26.6502 22.5004) rotate(43.971) scale(88.5793)">
<stop offset="0.185" stop-opacity="0"/>
<stop offset="1" stop-opacity="0.4"/>
</radialGradient>
<linearGradient id="paint8_linear_27_4687" x1="17.6501" y1="20.2501" x2="14.6501" y2="17.2501" gradientUnits="userSpaceOnUse">
<stop stop-color="#4F3C43"/>
<stop offset="0.326" stop-color="#52394E"/>
<stop offset="1" stop-color="#422E2B"/>
</linearGradient>
<linearGradient id="paint9_linear_27_4687" x1="19.9001" y1="18.7501" x2="16.9001" y2="21.7501" gradientUnits="userSpaceOnUse">
<stop stop-color="#45253E"/>
<stop offset="0.414" stop-color="#55424C"/>
<stop offset="1" stop-color="#512756"/>
</linearGradient>
<linearGradient id="paint10_linear_27_4687" x1="34.1501" y1="20.2501" x2="31.1501" y2="17.2501" gradientUnits="userSpaceOnUse">
<stop stop-color="#4F3C43"/>
<stop offset="0.326" stop-color="#52394E"/>
<stop offset="1" stop-color="#422E2B"/>
</linearGradient>
<linearGradient id="paint11_linear_27_4687" x1="36.4001" y1="18.7501" x2="33.4001" y2="21.7501" gradientUnits="userSpaceOnUse">
<stop stop-color="#45253E"/>
<stop offset="0.414" stop-color="#55424C"/>
<stop offset="1" stop-color="#512756"/>
</linearGradient>
<radialGradient id="paint12_radial_27_4687" cx="0" cy="0" r="1" gradientUnits="userSpaceOnUse" gradientTransform="translate(24.4001 43.1671) rotate(-90) scale(14.6667)">
<stop stop-color="#F70A8D"/>
<stop offset="1" stop-color="#89029C"/>
</radialGradient>
</defs>
</svg>
