<svg width="49" height="48" viewBox="0 0 49 48" fill="none" xmlns="http://www.w3.org/2000/svg">
<path d="M24.8003 44.9969C38.8013 44.9969 45.7988 35.5949 45.7988 23.9969C45.7988 12.4019 38.8013 2.99991 24.7988 2.99991C10.7993 2.99991 3.80176 12.4019 3.80176 23.9984C3.80176 35.5949 10.7978 44.9969 24.8003 44.9969Z" fill="url(#paint0_radial_27_4685)"/>
<path d="M24.8003 44.9969C38.8013 44.9969 45.7988 35.5949 45.7988 23.9969C45.7988 12.4019 38.8013 2.99991 24.7988 2.99991C10.7993 2.99991 3.80176 12.4019 3.80176 23.9984C3.80176 35.5949 10.7978 44.9969 24.8003 44.9969Z" fill="url(#paint1_radial_27_4685)"/>
<path d="M24.8003 44.9969C38.8013 44.9969 45.7988 35.5949 45.7988 23.9969C45.7988 12.4019 38.8013 2.99991 24.7988 2.99991C10.7993 2.99991 3.80176 12.4019 3.80176 23.9984C3.80176 35.5949 10.7978 44.9969 24.8003 44.9969Z" fill="url(#paint2_radial_27_4685)"/>
<path d="M24.8003 44.9969C38.8013 44.9969 45.7988 35.5949 45.7988 23.9969C45.7988 12.4019 38.8013 2.99991 24.7988 2.99991C10.7993 2.99991 3.80176 12.4019 3.80176 23.9984C3.80176 35.5949 10.7978 44.9969 24.8003 44.9969Z" fill="url(#paint3_radial_27_4685)" fill-opacity="0.6"/>
<path d="M24.8003 44.9969C38.8013 44.9969 45.7988 35.5949 45.7988 23.9969C45.7988 12.4019 38.8013 2.99991 24.7988 2.99991C10.7993 2.99991 3.80176 12.4019 3.80176 23.9984C3.80176 35.5949 10.7978 44.9969 24.8003 44.9969Z" fill="url(#paint4_radial_27_4685)"/>
<path d="M24.8003 44.9969C38.8013 44.9969 45.7988 35.5949 45.7988 23.9969C45.7988 12.4019 38.8013 2.99991 24.7988 2.99991C10.7993 2.99991 3.80176 12.4019 3.80176 23.9984C3.80176 35.5949 10.7978 44.9969 24.8003 44.9969Z" fill="url(#paint5_radial_27_4685)"/>
<path d="M24.8003 44.9969C38.8013 44.9969 45.7988 35.5949 45.7988 23.9969C45.7988 12.4019 38.8013 2.99991 24.7988 2.99991C10.7993 2.99991 3.80176 12.4019 3.80176 23.9984C3.80176 35.5949 10.7978 44.9969 24.8003 44.9969Z" fill="url(#paint6_radial_27_4685)"/>
<path d="M24.8003 44.9969C38.8013 44.9969 45.7988 35.5949 45.7988 23.9969C45.7988 12.4019 38.8013 2.99991 24.7988 2.99991C10.7993 2.99991 3.80176 12.4019 3.80176 23.9984C3.80176 35.5949 10.7978 44.9969 24.8003 44.9969Z" fill="url(#paint7_radial_27_4685)"/>
<path d="M14.3283 27.1409C18.1996 27.1409 21.3378 24.0027 21.3378 20.1314C21.3378 16.2602 18.1996 13.1219 14.3283 13.1219C10.4571 13.1219 7.31885 16.2602 7.31885 20.1314C7.31885 24.0027 10.4571 27.1409 14.3283 27.1409Z" fill="url(#paint8_radial_27_4685)"/>
<path d="M29.6678 27.2804C33.1836 27.2804 36.0338 24.4302 36.0338 20.9144C36.0338 17.3986 33.1836 14.5484 29.6678 14.5484C26.1519 14.5484 23.3018 17.3986 23.3018 20.9144C23.3018 24.4302 26.1519 27.2804 29.6678 27.2804Z" fill="url(#paint9_radial_27_4685)"/>
<path d="M16.431 24.336C17.2676 24.3489 18.0984 24.1952 18.875 23.884C19.6517 23.5728 20.3587 23.1102 20.9548 22.5231C21.551 21.9361 22.0245 21.2363 22.3476 20.4645C22.6708 19.6927 22.8372 18.8644 22.8372 18.0277C22.8372 17.191 22.6708 16.3627 22.3476 15.5909C22.0245 14.8191 21.551 14.1194 20.9548 13.5323C20.3587 12.9453 19.6517 12.4826 18.875 12.1714C18.0984 11.8602 17.2676 11.7066 16.431 11.7195C14.7748 11.745 13.195 12.4208 12.0328 13.6011C10.8707 14.7813 10.2192 16.3713 10.2192 18.0277C10.2192 19.6841 10.8707 21.2741 12.0328 22.4543C13.195 23.6346 14.7748 24.3104 16.431 24.336ZM33.153 24.4515C34.8415 24.4515 36.4609 23.7807 37.6549 22.5867C38.8489 21.3927 39.5197 19.7733 39.5197 18.0847C39.5197 16.3961 38.8489 14.7767 37.6549 13.5827C36.4609 12.3887 34.8415 11.718 33.153 11.718C31.4642 11.718 29.8446 12.3888 28.6505 13.583C27.4563 14.7771 26.7855 16.3967 26.7855 18.0855C26.7855 19.7742 27.4563 21.3938 28.6505 22.588C29.8446 23.7821 31.4642 24.4515 33.153 24.4515Z" class="fill-white"/>
<path d="M17.3018 22.4999C18.4952 22.4999 19.6398 22.0258 20.4837 21.1819C21.3277 20.338 21.8018 19.1934 21.8018 17.9999C21.8018 16.8065 21.3277 15.6619 20.4837 14.818C19.6398 13.974 18.4952 13.4999 17.3018 13.4999C16.1083 13.4999 14.9637 13.974 14.1198 14.818C13.2759 15.6619 12.8018 16.8065 12.8018 17.9999C12.8018 19.1934 13.2759 20.338 14.1198 21.1819C14.9637 22.0258 16.1083 22.4999 17.3018 22.4999Z" fill="url(#paint10_linear_27_4685)"/>
<path d="M32.3018 22.4999C33.4952 22.4999 34.6398 22.0258 35.4837 21.1819C36.3277 20.338 36.8018 19.1934 36.8018 17.9999C36.8018 16.8065 36.3277 15.6619 35.4837 14.818C34.6398 13.974 33.4952 13.4999 32.3018 13.4999C31.1083 13.4999 29.9637 13.974 29.1198 14.818C28.2759 15.6619 27.8018 16.8065 27.8018 17.9999C27.8018 19.1934 28.2759 20.338 29.1198 21.1819C29.9637 22.0258 31.1083 22.4999 32.3018 22.4999Z" fill="url(#paint11_linear_27_4685)"/>
<path fill-rule="evenodd" clip-rule="evenodd" d="M16.4018 27.2999C16.5593 27.1818 16.7387 27.0958 16.9295 27.0469C17.1203 26.998 17.3189 26.9872 17.5139 27.015C17.7089 27.0429 17.8965 27.1089 18.066 27.2092C18.2355 27.3096 18.3836 27.4424 18.5018 27.5999C18.9668 28.2194 21.0698 29.9999 24.8018 29.9999C28.5338 29.9999 30.6368 28.2194 31.1018 27.5999C31.22 27.4424 31.368 27.3096 31.5375 27.2092C31.707 27.1089 31.8946 27.0429 32.0896 27.015C32.2846 26.9872 32.4832 26.998 32.674 27.0469C32.8649 27.0958 33.0442 27.1818 33.2018 27.2999C33.3594 27.4181 33.4921 27.5662 33.5925 27.7357C33.6928 27.9052 33.7588 28.0928 33.7867 28.2878C33.8145 28.4828 33.8037 28.6814 33.7548 28.8722C33.7059 29.063 33.62 29.2424 33.5018 29.3999C32.4668 30.7799 29.4698 32.9999 24.8018 32.9999C20.1338 32.9999 17.1368 30.7799 16.1018 29.3999C15.8631 29.0817 15.7606 28.6816 15.8168 28.2878C15.8731 27.894 16.0835 27.5386 16.4018 27.2999Z" fill="url(#paint12_radial_27_4685)"/>
<defs>
<radialGradient id="paint0_radial_27_4685" cx="0" cy="0" r="1" gradientUnits="userSpaceOnUse" gradientTransform="translate(39.052 13.4993) rotate(132.839) scale(56.2549)">
<stop stop-color="#FFF478"/>
<stop offset="0.475" stop-color="#FFB02E"/>
<stop offset="1" stop-color="#F70A8D"/>
</radialGradient>
<radialGradient id="paint1_radial_27_4685" cx="0" cy="0" r="1" gradientUnits="userSpaceOnUse" gradientTransform="translate(39.05 13.5009) rotate(131.878) scale(58.423)">
<stop stop-color="#FFF478"/>
<stop offset="0.475" stop-color="#FFB02E"/>
<stop offset="1" stop-color="#F70A8D"/>
</radialGradient>
<radialGradient id="paint2_radial_27_4685" cx="0" cy="0" r="1" gradientUnits="userSpaceOnUse" gradientTransform="translate(24.8007 18.7495) rotate(101.31) scale(26.7699 34.2871)">
<stop offset="0.788" stop-color="#F59639" stop-opacity="0"/>
<stop offset="0.973" stop-color="#FF7DCE"/>
</radialGradient>
<radialGradient id="paint3_radial_27_4685" cx="0" cy="0" r="1" gradientUnits="userSpaceOnUse" gradientTransform="translate(27.8018 20.9999) rotate(135) scale(61.5183)">
<stop offset="0.315" stop-opacity="0"/>
<stop offset="1"/>
</radialGradient>
<radialGradient id="paint4_radial_27_4685" cx="0" cy="0" r="1" gradientUnits="userSpaceOnUse" gradientTransform="translate(24.8017 25.501) rotate(77.692) scale(42.2203)">
<stop offset="0.508" stop-color="#7D6133" stop-opacity="0"/>
<stop offset="1" stop-color="#715B32"/>
</radialGradient>
<radialGradient id="paint5_radial_27_4685" cx="0" cy="0" r="1" gradientUnits="userSpaceOnUse" gradientTransform="translate(25.5518 24.7499) rotate(55.713) scale(19.9702 14.4755)">
<stop stop-color="#FFB849"/>
<stop offset="1" stop-color="#FFB847" stop-opacity="0"/>
</radialGradient>
<radialGradient id="paint6_radial_27_4685" cx="0" cy="0" r="1" gradientUnits="userSpaceOnUse" gradientTransform="translate(31.5518 26.9999) rotate(9.86582) scale(17.5089)">
<stop stop-color="#FFA64B"/>
<stop offset="0.9" stop-color="#FFAE46" stop-opacity="0"/>
</radialGradient>
<radialGradient id="paint7_radial_27_4685" cx="0" cy="0" r="1" gradientUnits="userSpaceOnUse" gradientTransform="translate(27.0518 22.5003) rotate(43.971) scale(88.5793)">
<stop offset="0.185" stop-opacity="0"/>
<stop offset="1" stop-opacity="0.4"/>
</radialGradient>
<radialGradient id="paint8_radial_27_4685" cx="0" cy="0" r="1" gradientUnits="userSpaceOnUse" gradientTransform="translate(19.7824 14.6773) rotate(135) scale(13.6587 7.06927)">
<stop stop-color="#392108"/>
<stop offset="1" stop-color="#C87928" stop-opacity="0"/>
</radialGradient>
<radialGradient id="paint9_radial_27_4685" cx="0" cy="0" r="1" gradientUnits="userSpaceOnUse" gradientTransform="translate(34.6204 15.9618) rotate(135) scale(11.5045 6.49449)">
<stop stop-color="#392108"/>
<stop offset="1" stop-color="#C87928" stop-opacity="0"/>
</radialGradient>
<linearGradient id="paint10_linear_27_4685" x1="25.5518" y1="11.9999" x2="24.0518" y2="22.4999" gradientUnits="userSpaceOnUse">
<stop stop-color="#553B3E"/>
<stop offset="1" stop-color="#3D2432"/>
</linearGradient>
<linearGradient id="paint11_linear_27_4685" x1="25.5518" y1="11.9999" x2="24.0518" y2="22.4999" gradientUnits="userSpaceOnUse">
<stop stop-color="#553B3E"/>
<stop offset="1" stop-color="#3D2432"/>
</linearGradient>
<radialGradient id="paint12_radial_27_4685" cx="0" cy="0" r="1" gradientUnits="userSpaceOnUse" gradientTransform="translate(24.8018 25.4999) rotate(90) scale(8.25 12.6278)">
<stop offset="0.348" stop-color="#241A1A"/>
<stop offset="0.628" stop-color="#57444A"/>
<stop offset="1" stop-color="#502A56"/>
</radialGradient>
</defs>
</svg>
